<?xml version="1.0" encoding="UTF-8" standalone="no"?>
<!-- Created with Inkscape (http://www.inkscape.org/) -->

<svg
   xmlns:dc="http://purl.org/dc/elements/1.1/"
   xmlns:cc="http://creativecommons.org/ns#"
   xmlns:rdf="http://www.w3.org/1999/02/22-rdf-syntax-ns#"
   xmlns:svg="http://www.w3.org/2000/svg"
   xmlns="http://www.w3.org/2000/svg"
   version="1.1"
   width="645.0625"
   height="637.09393"
   id="svg2">
  <defs
     id="defs4" />
  <metadata
     id="metadata7">
    <rdf:RDF>
      <cc:Work
         rdf:about="">
        <dc:format>image/svg+xml</dc:format>
        <dc:type
           rdf:resource="http://purl.org/dc/dcmitype/StillImage" />
        <dc:title></dc:title>
      </cc:Work>
    </rdf:RDF>
  </metadata>
  <g
     transform="translate(-38.06196,-212.01667)"
     id="layer1">
    <path
       d="m 48.06196,531.11059 230.40625,0 c 1.86659,-43.81445 37.88189,-78.78125 82.15625,-78.78125 0.16912,0 0.33112,0.0302 0.5,0.0312 l 0,-230.34375 c -0.16747,-2.6e-4 -0.33247,0 -0.5,0 -171.48354,0 -310.66087,138.06072 -312.5625,309.09375 z"
       id="path3023"
       style="fill:#ff2a2a" />
    <path
       d="m 673.12446,531.11059 -230.40625,0 c -1.86659,-43.81445 -37.88189,-78.78125 -82.15625,-78.78125 -0.16912,0 -0.33112,0.0302 -0.5,0.0312 l 0,-230.34375 c 0.16747,-2.6e-4 0.33247,0 0.5,0 171.48354,0 310.66087,138.06072 312.5625,309.09375 z"
       id="path3050"
       style="fill:#000080" />
    <path
       d="m 48.06196,530.01667 230.40625,0 c 1.86659,43.81445 37.88189,78.78125 82.15625,78.78125 0.16912,0 0.33112,-0.0302 0.5,-0.0312 l 0,230.34375 c -0.16747,2.6e-4 -0.33247,0 -0.5,0 -171.48354,0 -310.66087,-138.06072 -312.5625,-309.09375 z"
       id="path3052"
       style="fill:#ffff00" />
    <path
       d="m 673.12446,530.01667 -230.40625,0 c -1.86659,43.81445 -37.88189,78.78125 -82.15625,78.78125 -0.16912,0 -0.33112,-0.0302 -0.5,-0.0312 l 0,230.34375 c 0.16747,2.6e-4 0.33247,0 0.5,0 171.48354,0 310.66087,-138.06072 312.5625,-309.09375 z"
       id="path3054"
       style="fill:#00ff00" />
  </g>
</svg>
